<?xml version="1.0" encoding="UTF-8" standalone="no"?>
<!DOCTYPE svg PUBLIC "-//W3C//DTD SVG 1.1//EN" "http://www.w3.org/Graphics/SVG/1.1/DTD/svg11.dtd">
<svg xmlns="http://www.w3.org/2000/svg" version="1.1" viewBox="0.00 0.00 834.00 834.00">
<g stroke-width="2.00" fill="none" stroke-linecap="butt">
<path stroke="#193a32" stroke-opacity="0.765" vector-effect="non-scaling-stroke" d="
  M 652.10 802.58
  Q 416.12 802.54 181.06 802.58
  Q 168.18 802.58 162.96 801.18
  C 148.04 797.19 136.90 785.67 132.94 770.63
  Q 131.78 766.20 131.78 759.39
  Q 131.70 414.52 131.81 75.73
  C 131.81 73.44 132.26 71.25 132.56 68.89"
/>
<path stroke="#8a9096" vector-effect="non-scaling-stroke" d="
  M 177.01 726.86
  A 29.89 29.89 0.0 0 0 206.90 756.75
  L 680.60 756.75
  A 29.89 29.89 0.0 0 0 710.49 726.86
  L 710.51 45.13
  A 29.89 29.89 0.0 0 0 680.62 15.24
  L 206.89 15.25
  A 29.89 29.89 0.0 0 0 177.00 45.14
  L 177.01 726.86"
/>
<path stroke="#8a9096" vector-effect="non-scaling-stroke" d="
  M 199.41 768.71
  C 182.48 765.90 169.67 752.89 165.68 736.72
  Q 164.46 731.79 164.46 718.56
  Q 164.54 383.63 164.49 50.31
  Q 164.49 49.84 164.05 50.01
  Q 149.56 55.86 145.34 70.04
  Q 144.26 73.65 144.26 76.48
  Q 144.27 412.54 144.28 761.02
  C 144.28 773.74 153.12 784.66 165.05 788.68
  Q 169.06 790.03 176.55 790.03
  Q 412.75 789.99 648.79 790.01
  Q 652.31 790.01 655.96 788.89
  Q 670.09 784.53 675.81 770.40
  Q 676.27 769.25 675.03 769.25
  Q 442.77 769.25 209.62 769.25
  Q 202.70 769.25 199.41 768.71"
/>
<path stroke="#9fe4b8" vector-effect="non-scaling-stroke" d="
  M 456.23 99.78
  A 24.77 24.77 0.0 0 0 431.46 75.01
  L 258.54 75.02
  A 24.77 24.77 0.0 0 0 233.77 99.79
  L 233.73 337.24
  A 24.77 24.77 0.0 0 0 258.50 362.01
  L 431.50 362.01
  A 24.77 24.77 0.0 0 0 456.27 337.24
  L 456.23 99.78"
/>
<path stroke="#8a9096" vector-effect="non-scaling-stroke" d="
  M 643.72 114.28
  A 8.27 8.27 0.0 0 0 635.45 106.01
  L 500.05 106.01
  A 8.27 8.27 0.0 0 0 491.78 114.28
  L 491.78 114.48
  A 8.27 8.27 0.0 0 0 500.05 122.75
  L 635.45 122.75
  A 8.27 8.27 0.0 0 0 643.72 114.48
  L 643.72 114.28"
/>
<path stroke="#8a9096" vector-effect="non-scaling-stroke" d="
  M 643.71 167.79
  A 8.27 8.27 0.0 0 0 635.44 159.52
  L 500.04 159.52
  A 8.27 8.27 0.0 0 0 491.77 167.79
  L 491.77 167.99
  A 8.27 8.27 0.0 0 0 500.04 176.26
  L 635.44 176.26
  A 8.27 8.27 0.0 0 0 643.71 167.99
  L 643.71 167.79"
/>
<path stroke="#8a9096" vector-effect="non-scaling-stroke" d="
  M 643.71 221.52
  A 8.27 8.27 0.0 0 0 635.44 213.25
  L 500.06 213.25
  A 8.27 8.27 0.0 0 0 491.79 221.52
  L 491.79 221.72
  A 8.27 8.27 0.0 0 0 500.06 229.99
  L 635.44 229.99
  A 8.27 8.27 0.0 0 0 643.71 221.72
  L 643.71 221.52"
/>
<path stroke="#8a9096" vector-effect="non-scaling-stroke" d="
  M 643.72 275.02
  A 8.27 8.27 0.0 0 0 635.45 266.75
  L 500.03 266.75
  A 8.27 8.27 0.0 0 0 491.76 275.02
  L 491.76 275.22
  A 8.27 8.27 0.0 0 0 500.03 283.49
  L 635.45 283.49
  A 8.27 8.27 0.0 0 0 643.72 275.22
  L 643.72 275.02"
/>
<path stroke="#8a9096" vector-effect="non-scaling-stroke" d="
  M 643.72 328.53
  A 8.27 8.27 0.0 0 0 635.45 320.26
  L 500.05 320.26
  A 8.27 8.27 0.0 0 0 491.78 328.53
  L 491.78 328.73
  A 8.27 8.27 0.0 0 0 500.05 337.00
  L 635.45 337.00
  A 8.27 8.27 0.0 0 0 643.72 328.73
  L 643.72 328.53"
/>
<path stroke="#8a9096" vector-effect="non-scaling-stroke" d="
  M 649.53 406.33
  A 8.08 8.08 0.0 0 0 641.45 398.25
  L 246.07 398.25
  A 8.08 8.08 0.0 0 0 237.99 406.33
  L 237.99 406.93
  A 8.08 8.08 0.0 0 0 246.07 415.01
  L 641.45 415.01
  A 8.08 8.08 0.0 0 0 649.53 406.93
  L 649.53 406.33"
/>
<path stroke="#8a9096" vector-effect="non-scaling-stroke" d="
  M 649.53 462.59
  A 8.10 8.10 0.0 0 0 641.43 454.49
  L 246.09 454.49
  A 8.10 8.10 0.0 0 0 237.99 462.59
  L 237.99 463.15
  A 8.10 8.10 0.0 0 0 246.09 471.25
  L 641.43 471.25
  A 8.10 8.10 0.0 0 0 649.53 463.15
  L 649.53 462.59"
/>
<path stroke="#8a9096" vector-effect="non-scaling-stroke" d="
  M 649.53 518.59
  A 8.10 8.10 0.0 0 0 641.43 510.49
  L 246.09 510.49
  A 8.10 8.10 0.0 0 0 237.99 518.59
  L 237.99 519.15
  A 8.10 8.10 0.0 0 0 246.09 527.25
  L 641.43 527.25
  A 8.10 8.10 0.0 0 0 649.53 519.15
  L 649.53 518.59"
/>
<path stroke="#8a9096" vector-effect="non-scaling-stroke" d="
  M 649.53 574.61
  A 8.11 8.11 0.0 0 0 641.42 566.50
  L 246.10 566.50
  A 8.11 8.11 0.0 0 0 237.99 574.61
  L 237.99 575.15
  A 8.11 8.11 0.0 0 0 246.10 583.26
  L 641.42 583.26
  A 8.11 8.11 0.0 0 0 649.53 575.15
  L 649.53 574.61"
/>
<path stroke="#8a9096" vector-effect="non-scaling-stroke" d="
  M 649.53 630.57
  A 8.07 8.07 0.0 0 0 641.46 622.50
  L 246.06 622.50
  A 8.07 8.07 0.0 0 0 237.99 630.57
  L 237.99 631.19
  A 8.07 8.07 0.0 0 0 246.06 639.26
  L 641.46 639.26
  A 8.07 8.07 0.0 0 0 649.53 631.19
  L 649.53 630.57"
/>
<path stroke="#8a9096" vector-effect="non-scaling-stroke" d="
  M 649.53 686.84
  A 8.10 8.10 0.0 0 0 641.43 678.74
  L 246.09 678.74
  A 8.10 8.10 0.0 0 0 237.99 686.84
  L 237.99 687.40
  A 8.10 8.10 0.0 0 0 246.09 695.50
  L 641.43 695.50
  A 8.10 8.10 0.0 0 0 649.53 687.40
  L 649.53 686.84"
/>
<path stroke="#6cd693" vector-effect="non-scaling-stroke" d="
  M 439.50 100.06
  A 8.31 8.31 0.0 0 0 431.19 91.75
  L 258.81 91.75
  A 8.31 8.31 0.0 0 0 250.50 100.06
  L 250.50 336.94
  A 8.31 8.31 0.0 0 0 258.81 345.25
  L 431.19 345.25
  A 8.31 8.31 0.0 0 0 439.50 336.94
  L 439.50 100.06"
/>
</g>
<path fill="#15202d" d="
  M 652.10 802.58
  Q 416.12 802.54 181.06 802.58
  Q 168.18 802.58 162.96 801.18
  C 148.04 797.19 136.90 785.67 132.94 770.63
  Q 131.78 766.20 131.78 759.39
  Q 131.70 414.52 131.81 75.73
  C 131.81 73.44 132.26 71.25 132.56 68.89
  Q 138.62 45.40 161.81 37.52
  C 162.79 37.19 164.01 37.17 164.96 36.72
  Q 165.45 36.49 165.56 35.96
  C 168.75 20.18 180.70 8.25 195.91 4.02
  Q 200.63 2.71 208.62 2.71
  Q 447.03 2.79 683.48 2.74
  Q 688.58 2.74 695.04 5.10
  C 708.35 9.97 717.82 20.45 721.63 34.14
  Q 723.08 39.37 723.07 52.00
  Q 722.89 386.62 723.07 721.68
  Q 723.08 732.21 721.63 737.70
  C 717.83 752.06 707.26 763.06 693.11 767.50
  C 692.04 767.84 690.90 768.00 689.86 768.38
  A 1.04 1.03 86.8 0 0 689.21 769.11
  Q 683.54 792.00 661.91 800.18
  Q 659.94 800.93 657.04 801.51
  Q 654.34 802.06 652.10 802.58
  Z
  M 177.01 726.86
  A 29.89 29.89 0.0 0 0 206.90 756.75
  L 680.60 756.75
  A 29.89 29.89 0.0 0 0 710.49 726.86
  L 710.51 45.13
  A 29.89 29.89 0.0 0 0 680.62 15.24
  L 206.89 15.25
  A 29.89 29.89 0.0 0 0 177.00 45.14
  L 177.01 726.86
  Z
  M 199.41 768.71
  C 182.48 765.90 169.67 752.89 165.68 736.72
  Q 164.46 731.79 164.46 718.56
  Q 164.54 383.63 164.49 50.31
  Q 164.49 49.84 164.05 50.01
  Q 149.56 55.86 145.34 70.04
  Q 144.26 73.65 144.26 76.48
  Q 144.27 412.54 144.28 761.02
  C 144.28 773.74 153.12 784.66 165.05 788.68
  Q 169.06 790.03 176.55 790.03
  Q 412.75 789.99 648.79 790.01
  Q 652.31 790.01 655.96 788.89
  Q 670.09 784.53 675.81 770.40
  Q 676.27 769.25 675.03 769.25
  Q 442.77 769.25 209.62 769.25
  Q 202.70 769.25 199.41 768.71
  Z"
/>
<path fill="#ffffff" d="
  M 177.01 726.86
  L 177.00 45.14
  A 29.89 29.89 0.0 0 1 206.89 15.25
  L 680.62 15.24
  A 29.89 29.89 0.0 0 1 710.51 45.13
  L 710.49 726.86
  A 29.89 29.89 0.0 0 1 680.60 756.75
  L 206.90 756.75
  A 29.89 29.89 0.0 0 1 177.01 726.86
  Z
  M 456.23 99.78
  A 24.77 24.77 0.0 0 0 431.46 75.01
  L 258.54 75.02
  A 24.77 24.77 0.0 0 0 233.77 99.79
  L 233.73 337.24
  A 24.77 24.77 0.0 0 0 258.50 362.01
  L 431.50 362.01
  A 24.77 24.77 0.0 0 0 456.27 337.24
  L 456.23 99.78
  Z
  M 643.72 114.28
  A 8.27 8.27 0.0 0 0 635.45 106.01
  L 500.05 106.01
  A 8.27 8.27 0.0 0 0 491.78 114.28
  L 491.78 114.48
  A 8.27 8.27 0.0 0 0 500.05 122.75
  L 635.45 122.75
  A 8.27 8.27 0.0 0 0 643.72 114.48
  L 643.72 114.28
  Z
  M 643.71 167.79
  A 8.27 8.27 0.0 0 0 635.44 159.52
  L 500.04 159.52
  A 8.27 8.27 0.0 0 0 491.77 167.79
  L 491.77 167.99
  A 8.27 8.27 0.0 0 0 500.04 176.26
  L 635.44 176.26
  A 8.27 8.27 0.0 0 0 643.71 167.99
  L 643.71 167.79
  Z
  M 643.71 221.52
  A 8.27 8.27 0.0 0 0 635.44 213.25
  L 500.06 213.25
  A 8.27 8.27 0.0 0 0 491.79 221.52
  L 491.79 221.72
  A 8.27 8.27 0.0 0 0 500.06 229.99
  L 635.44 229.99
  A 8.27 8.27 0.0 0 0 643.71 221.72
  L 643.71 221.52
  Z
  M 643.72 275.02
  A 8.27 8.27 0.0 0 0 635.45 266.75
  L 500.03 266.75
  A 8.27 8.27 0.0 0 0 491.76 275.02
  L 491.76 275.22
  A 8.27 8.27 0.0 0 0 500.03 283.49
  L 635.45 283.49
  A 8.27 8.27 0.0 0 0 643.72 275.22
  L 643.72 275.02
  Z
  M 643.72 328.53
  A 8.27 8.27 0.0 0 0 635.45 320.26
  L 500.05 320.26
  A 8.27 8.27 0.0 0 0 491.78 328.53
  L 491.78 328.73
  A 8.27 8.27 0.0 0 0 500.05 337.00
  L 635.45 337.00
  A 8.27 8.27 0.0 0 0 643.72 328.73
  L 643.72 328.53
  Z
  M 649.53 406.33
  A 8.08 8.08 0.0 0 0 641.45 398.25
  L 246.07 398.25
  A 8.08 8.08 0.0 0 0 237.99 406.33
  L 237.99 406.93
  A 8.08 8.08 0.0 0 0 246.07 415.01
  L 641.45 415.01
  A 8.08 8.08 0.0 0 0 649.53 406.93
  L 649.53 406.33
  Z
  M 649.53 462.59
  A 8.10 8.10 0.0 0 0 641.43 454.49
  L 246.09 454.49
  A 8.10 8.10 0.0 0 0 237.99 462.59
  L 237.99 463.15
  A 8.10 8.10 0.0 0 0 246.09 471.25
  L 641.43 471.25
  A 8.10 8.10 0.0 0 0 649.53 463.15
  L 649.53 462.59
  Z
  M 649.53 518.59
  A 8.10 8.10 0.0 0 0 641.43 510.49
  L 246.09 510.49
  A 8.10 8.10 0.0 0 0 237.99 518.59
  L 237.99 519.15
  A 8.10 8.10 0.0 0 0 246.09 527.25
  L 641.43 527.25
  A 8.10 8.10 0.0 0 0 649.53 519.15
  L 649.53 518.59
  Z
  M 649.53 574.61
  A 8.11 8.11 0.0 0 0 641.42 566.50
  L 246.10 566.50
  A 8.11 8.11 0.0 0 0 237.99 574.61
  L 237.99 575.15
  A 8.11 8.11 0.0 0 0 246.10 583.26
  L 641.42 583.26
  A 8.11 8.11 0.0 0 0 649.53 575.15
  L 649.53 574.61
  Z
  M 649.53 630.57
  A 8.07 8.07 0.0 0 0 641.46 622.50
  L 246.06 622.50
  A 8.07 8.07 0.0 0 0 237.99 630.57
  L 237.99 631.19
  A 8.07 8.07 0.0 0 0 246.06 639.26
  L 641.46 639.26
  A 8.07 8.07 0.0 0 0 649.53 631.19
  L 649.53 630.57
  Z
  M 649.53 686.84
  A 8.10 8.10 0.0 0 0 641.43 678.74
  L 246.09 678.74
  A 8.10 8.10 0.0 0 0 237.99 686.84
  L 237.99 687.40
  A 8.10 8.10 0.0 0 0 246.09 695.50
  L 641.43 695.50
  A 8.10 8.10 0.0 0 0 649.53 687.40
  L 649.53 686.84
  Z"
/>
<path fill="#ffffff" d="
  M 165.68 736.72
  C 169.67 752.89 182.48 765.90 199.41 768.71
  Q 202.70 769.25 209.62 769.25
  Q 442.77 769.25 675.03 769.25
  Q 676.27 769.25 675.81 770.40
  Q 670.09 784.53 655.96 788.89
  Q 652.31 790.01 648.79 790.01
  Q 412.75 789.99 176.55 790.03
  Q 169.06 790.03 165.05 788.68
  C 153.12 784.66 144.28 773.74 144.28 761.02
  Q 144.27 412.54 144.26 76.48
  Q 144.26 73.65 145.34 70.04
  Q 149.56 55.86 164.05 50.01
  Q 164.49 49.84 164.49 50.31
  Q 164.54 383.63 164.46 718.56
  Q 164.46 731.79 165.68 736.72
  Z"
/>
<path fill="#216a3c" fill-opacity="0.529" d="
  M 132.56 68.89
  C 132.26 71.25 131.81 73.44 131.81 75.73
  Q 131.70 414.52 131.78 759.39
  Q 131.78 766.20 132.94 770.63
  C 136.90 785.67 148.04 797.19 162.96 801.18
  Q 168.18 802.58 181.06 802.58
  Q 416.12 802.54 652.10 802.58
  Q 646.53 817.06 632.81 821.21
  Q 627.64 822.77 615.55 822.77
  Q 140.47 822.73 139.44 822.72
  C 125.61 822.60 113.50 814.14 109.47 800.83
  Q 108.21 796.67 108.21 789.89
  Q 108.30 451.12 108.22 100.83
  Q 108.22 94.43 109.55 90.09
  Q 114.56 73.69 132.56 68.89
  Z"
/>
<path fill="#3ec971" d="
  M 456.23 99.78
  L 456.27 337.24
  A 24.77 24.77 0.0 0 1 431.50 362.01
  L 258.50 362.01
  A 24.77 24.77 0.0 0 1 233.73 337.24
  L 233.77 99.79
  A 24.77 24.77 0.0 0 1 258.54 75.02
  L 431.46 75.01
  A 24.77 24.77 0.0 0 1 456.23 99.78
  Z
  M 439.50 100.06
  A 8.31 8.31 0.0 0 0 431.19 91.75
  L 258.81 91.75
  A 8.31 8.31 0.0 0 0 250.50 100.06
  L 250.50 336.94
  A 8.31 8.31 0.0 0 0 258.81 345.25
  L 431.19 345.25
  A 8.31 8.31 0.0 0 0 439.50 336.94
  L 439.50 100.06
  Z"
/>
<rect fill="#99e2b4" x="250.50" y="91.75" width="189.00" height="253.50" rx="8.31"/>
<rect fill="#15202d" x="491.78" y="106.01" width="151.94" height="16.74" rx="8.27"/>
<rect fill="#15202d" x="491.77" y="159.52" width="151.94" height="16.74" rx="8.27"/>
<rect fill="#15202d" x="491.79" y="213.25" width="151.92" height="16.74" rx="8.27"/>
<rect fill="#15202d" x="491.76" y="266.75" width="151.96" height="16.74" rx="8.27"/>
<rect fill="#15202d" x="491.78" y="320.26" width="151.94" height="16.74" rx="8.27"/>
<rect fill="#15202d" x="237.99" y="398.25" width="411.54" height="16.76" rx="8.08"/>
<rect fill="#15202d" x="237.99" y="454.49" width="411.54" height="16.76" rx="8.10"/>
<rect fill="#15202d" x="237.99" y="510.49" width="411.54" height="16.76" rx="8.10"/>
<rect fill="#15202d" x="237.99" y="566.50" width="411.54" height="16.76" rx="8.11"/>
<rect fill="#15202d" x="237.99" y="622.50" width="411.54" height="16.76" rx="8.07"/>
<rect fill="#15202d" x="237.99" y="678.74" width="411.54" height="16.76" rx="8.10"/>
</svg>
